# xmcd
# 
# Track frame offsets:
#     150
#     15331
#     28860
#     40071
#     53313
#     64833
#     79842
#     94433
#     110621
#     125913
#     144613
# 
# Disc length: 2146
# 
# Revision: 4
# Processed by: cddbd v1.5.2PL0 Copyright (c) Steve Scherf et al.
# Submitted via: fre:ac v1.0.31
# 
DISCID=9308600b
DTITLE=Sharon Jones and The DapKings - Soul of a Woman
DYEAR=2017
DGENRE=Soul
TTITLE0=Matter of Time
TTITLE1=Sail On!
TTITLE2=Just Give Me Your Time
TTITLE3=Come and Be a Winner
TTITLE4=Rumors
TTITLE5=Pass Me By
TTITLE6=Searching for a New Day
TTITLE7=These Tears (No Longer For You)
TTITLE8=When I Saw Your Face
TTITLE9=Girl! (You Got To Forgive Him)
TTITLE10=Call On God
EXTD=YEAR: 2017
EXTT0=
EXTT1=
EXTT2=
EXTT3=
EXTT4=
EXTT5=
EXTT6=
EXTT7=
EXTT8=
EXTT9=
EXTT10=
PLAYORDER=
